<svg width="72" height="167" viewBox="0 0 72 167" fill="none" xmlns="http://www.w3.org/2000/svg">
<path d="M46.4629 46.2513L46.4629 121" stroke="black"/>
<path d="M46.67 120.293C46.4343 120.528 46.1986 120.764 45.9629 121C46.3813 121.406 46.7996 121.813 47.218 122.219C54.7487 129.538 62.2794 136.857 69.8101 144.175C70.2284 144.582 70.6468 144.988 71.0652 145.395C70.6586 144.976 70.252 144.558 69.8454 144.14C62.5269 136.609 55.2083 129.078 47.8898 121.548C47.4832 121.129 47.0766 120.711 46.67 120.293Z" fill="black"/>
<path d="M46.2558 46.2929C46.4915 46.5286 46.7272 46.7643 46.9629 47C47.3695 46.5816 47.7761 46.1633 48.1826 45.7449C55.5012 38.2142 62.8198 30.6835 70.1383 23.1528C70.5449 22.7345 70.9515 22.3161 71.3581 21.8977C70.9397 22.3043 70.5213 22.7109 70.103 23.1175C62.5723 30.436 55.0416 37.7546 47.5109 45.0731C47.0925 45.4797 46.6742 45.8863 46.2558 46.2929Z" fill="black"/>
<path d="M46.0058 46.7071C46.2415 46.4714 46.4772 46.2357 46.7129 46C45.9403 45.2392 45.1678 44.4785 44.3952 43.7177C30.4892 30.0237 16.5831 16.3298 2.67702 2.63588C1.90445 1.8751 1.1319 1.11433 0.359337 0.353553C1.12011 1.12611 1.88088 1.89867 2.64166 2.67123C16.3356 16.5773 30.0295 30.4834 43.7235 44.3894C44.4842 45.162 45.245 45.9345 46.0058 46.7071Z" fill="black"/>
<path d="M46.67 120.958C46.4343 120.723 46.1986 120.487 45.9629 120.251C45.2028 121.023 44.4426 121.795 43.6825 122.567C30 136.462 16.3174 150.356 2.63492 164.251C1.87479 165.023 1.11464 165.795 0.354504 166.567C1.12643 165.807 1.89836 165.046 2.67028 164.286C16.5649 150.604 30.4596 136.921 44.3542 123.239C45.1261 122.479 45.8981 121.718 46.67 120.958Z" fill="black"/>
</svg>
